<svg width="40" height="39" viewBox="0 0 40 39" fill="none" xmlns="http://www.w3.org/2000/svg">
<g filter="url(#filter0_d_2112_41)">
<path d="M35 12.3333C35.884 12.3333 36.7319 12.6845 37.357 13.3096C37.9821 13.9348 38.3333 14.7826 38.3333 15.6667V22.3333C38.3333 23.2174 37.9821 24.0652 37.357 24.6904C36.7319 25.3155 35.884 25.6667 35 25.6667H33.23C32.8236 28.8888 31.2554 31.852 28.8195 34C26.3837 36.148 23.2476 37.3333 20 37.3333V34C22.6521 34 25.1957 32.9464 27.071 31.0711C28.9464 29.1957 30 26.6522 30 24V14C30 11.3478 28.9464 8.80429 27.071 6.92893C25.1957 5.05357 22.6521 4 20 4C17.3478 4 14.8043 5.05357 12.9289 6.92893C11.0535 8.80429 9.99996 11.3478 9.99996 14V25.6667H4.99996C4.1159 25.6667 3.26806 25.3155 2.64294 24.6904C2.01782 24.0652 1.66663 23.2174 1.66663 22.3333V15.6667C1.66663 14.7826 2.01782 13.9348 2.64294 13.3096C3.26806 12.6845 4.1159 12.3333 4.99996 12.3333H6.76996C7.17668 9.11149 8.74509 6.14878 11.1809 4.00112C13.6167 1.85346 16.7525 0.668457 20 0.668457C23.2474 0.668457 26.3832 1.85346 28.819 4.00112C31.2548 6.14878 32.8232 9.11149 33.23 12.3333H35ZM12.9333 25.3083L14.7 22.4817C16.2884 23.4767 18.1256 24.003 20 24C21.8743 24.003 23.7115 23.4767 25.3 22.4817L27.0666 25.3083C24.9487 26.6352 22.4992 27.3372 20 27.3333C17.5007 27.3372 15.0512 26.6352 12.9333 25.3083Z" fill="#F9995D"/>
</g>
<defs>
<filter id="filter0_d_2112_41" x="-2.33337" y="0.668457" width="44.6666" height="44.6649" filterUnits="userSpaceOnUse" color-interpolation-filters="sRGB">
<feFlood flood-opacity="0" result="BackgroundImageFix"/>
<feColorMatrix in="SourceAlpha" type="matrix" values="0 0 0 0 0 0 0 0 0 0 0 0 0 0 0 0 0 0 127 0" result="hardAlpha"/>
<feOffset dy="4"/>
<feGaussianBlur stdDeviation="2"/>
<feComposite in2="hardAlpha" operator="out"/>
<feColorMatrix type="matrix" values="0 0 0 0 0 0 0 0 0 0 0 0 0 0 0 0 0 0 0.25 0"/>
<feBlend mode="normal" in2="BackgroundImageFix" result="effect1_dropShadow_2112_41"/>
<feBlend mode="normal" in="SourceGraphic" in2="effect1_dropShadow_2112_41" result="shape"/>
</filter>
</defs>
</svg>
